<svg xmlns="http://www.w3.org/2000/svg" viewBox="0 0 2400 1000" width="2400" height="1000">
  <defs>
    <radialGradient id="glow" cx="0.5" cy="0.55" r="0.62">
      <stop offset="0%" stop-color="#1C2730"/>
      <stop offset="100%" stop-color="#0B0E11"/>
    </radialGradient>
    <linearGradient id="scan" x1="0" y1="0" x2="0" y2="1">
      <stop offset="0%" stop-color="#7FE3D0" stop-opacity="0"/>
      <stop offset="50%" stop-color="#7FE3D0" stop-opacity="0.5"/>
      <stop offset="100%" stop-color="#7FE3D0" stop-opacity="0"/>
    </linearGradient>
    <filter id="grainX">
      <feTurbulence type="fractalNoise" baseFrequency="0.85" numOctaves="3" seed="3"/>
      <feColorMatrix type="saturate" values="0"/>
    </filter>
  </defs>

  <rect width="2400" height="1000" fill="url(#glow)"/>

  <!-- ground plane in perspective -->
  <g stroke="#39505C" stroke-width="1.4" opacity="0.55" fill="none">
    <path d="M-200 1000 L1200 612"/><path d="M240 1000 L1200 612"/><path d="M680 1000 L1200 612"/>
    <path d="M1120 1000 L1200 612"/><path d="M1560 1000 L1200 612"/><path d="M2000 1000 L1200 612"/>
    <path d="M2440 1000 L1200 612"/><path d="M2880 1000 L1200 612"/>
  </g>
  <g stroke="#39505C" stroke-width="1.4" opacity="0.45" fill="none">
    <path d="M0 640 H2400"/><path d="M0 676 H2400"/><path d="M0 726 H2400"/>
    <path d="M0 796 H2400"/><path d="M0 890 H2400"/>
  </g>

  <!-- point cloud massing -->
  <g fill="#9FD8CC">
    <g opacity="0.9">
      <rect x="880" y="300" width="3" height="3"/><rect x="920" y="284" width="3" height="3"/>
      <rect x="962" y="316" width="3" height="3"/><rect x="1004" y="268" width="3" height="3"/>
      <rect x="1046" y="298" width="3" height="3"/><rect x="1088" y="252" width="3" height="3"/>
      <rect x="1130" y="288" width="3" height="3"/><rect x="1172" y="264" width="3" height="3"/>
      <rect x="1214" y="306" width="3" height="3"/><rect x="1256" y="276" width="3" height="3"/>
      <rect x="1298" y="322" width="3" height="3"/><rect x="1340" y="290" width="3" height="3"/>
      <rect x="1382" y="336" width="3" height="3"/><rect x="1424" y="304" width="3" height="3"/>
    </g>
  </g>
  <g fill="#7FE3D0" opacity="0.68">
    <rect x="900" y="352" width="2" height="2"/><rect x="944" y="378" width="2" height="2"/>
    <rect x="988" y="344" width="2" height="2"/><rect x="1032" y="392" width="2" height="2"/>
    <rect x="1076" y="356" width="2" height="2"/><rect x="1120" y="404" width="2" height="2"/>
    <rect x="1164" y="368" width="2" height="2"/><rect x="1208" y="412" width="2" height="2"/>
    <rect x="1252" y="374" width="2" height="2"/><rect x="1296" y="420" width="2" height="2"/>
    <rect x="1340" y="386" width="2" height="2"/><rect x="1384" y="430" width="2" height="2"/>
    <rect x="852" y="410" width="2" height="2"/><rect x="1428" y="398" width="2" height="2"/>
    <rect x="808" y="372" width="2" height="2"/><rect x="1472" y="356" width="2" height="2"/>
  </g>

  <!-- wireframe volumes -->
  <g stroke="#8FC7D6" fill="none" stroke-width="1.6" opacity="0.85">
    <rect x="960" y="330" width="220" height="290"/>
    <path d="M960 330 L1020 288 L1240 288 L1180 330"/>
    <path d="M1180 330 L1240 288 L1240 578 L1180 620"/>
    <rect x="1230" y="418" width="170" height="202"/>
    <path d="M1230 418 L1288 378 L1458 378 L1400 418"/>
    <path d="M1400 418 L1458 378 L1458 580 L1400 620"/>
    <rect x="742" y="446" width="180" height="174"/>
    <path d="M742 446 L798 406 L978 406 L922 446"/>
    <path d="M922 446 L978 406 L978 580 L922 620"/>
  </g>

  <!-- selection / measurement -->
  <g stroke="#E3392C" stroke-width="2" fill="none" opacity="0.95">
    <path d="M1230 418 H1400"/>
    <path d="M1230 408 V428"/><path d="M1400 408 V428"/>
  </g>
  <rect x="1230" y="418" width="170" height="202" fill="#E3392C" opacity="0.07"/>

  <rect x="0" y="470" width="2400" height="120" fill="url(#scan)" opacity="0.28"/>

  <!-- viewport reticle -->
  <g stroke="#6E7C86" stroke-width="1.5" opacity="0.6" fill="none">
    <path d="M60 60 H120 M60 60 V120"/>
    <path d="M2340 60 H2280 M2340 60 V120"/>
    <path d="M60 940 H120 M60 940 V880"/>
    <path d="M2340 940 H2280 M2340 940 V880"/>
  </g>

  <rect width="2400" height="1000" filter="url(#grainX)" opacity="0.07"/>
</svg>
